# xmcd
# 
# Track frame offsets:
#     150
#     25640
#     46182
#     65732
#     85631
#     99966
#     121328
#     128706
# 
# Disc length: 1966
# 
# Revision: 18
# Processed by: cddbd v1.5.2PL0 Copyright (c) Steve Scherf et al.
# Submitted via: fre:ac v1.0.31
# 
DISCID=5907ac08
DTITLE=Led Zeppelin - Led Zeppelin II Disc 2
DYEAR=2014
DGENRE=Rock/Pop
TTITLE0=Whole Lotta Love (Rough Mix with Vocal)
TTITLE1=What is and what Should Never Be (Rough Mix with Vocal)
TTITLE2=Thank You (Backing Track)
TTITLE3=Heartbreaker (Rough Mix with Vocal)
TTITLE4=Living Loving Maid (She's Just a Woman) (Backing Track)
TTITLE5=Ramble On (Rough Mix with Vocal)
TTITLE6=Moby Dick (Backing Track)
TTITLE7=La La (Intro/Outro Rough Mix)
EXTD=The Companion Disc
EXTT0=
EXTT1=
EXTT2=
EXTT3=
EXTT4=
EXTT5=
EXTT6=
EXTT7=
PLAYORDER=
